<?xml version="1.0" standalone="no"?>
<!DOCTYPE svg PUBLIC "-//W3C//DTD SVG 20010904//EN"
 "http://www.w3.org/TR/2001/REC-SVG-20010904/DTD/svg10.dtd">
<svg version="1.0" xmlns="http://www.w3.org/2000/svg"
 width="626.000000pt" height="626.000000pt" viewBox="0 0 626.000000 626.000000"
 preserveAspectRatio="xMidYMid meet">

<g transform="translate(0.000000,626.000000) scale(0.100000,-0.100000)"
fill="#000000" stroke="none">
<path d="M4139 5580 c-262 -24 -528 -112 -749 -249 -91 -57 -230 -162 -269
-205 -14 -14 -28 -26 -31 -26 -4 0 -38 25 -76 57 -92 76 -209 151 -324 208
-641 321 -1419 205 -1938 -289 -261 -249 -426 -545 -504 -906 -20 -92 -22
-133 -22 -335 0 -202 2 -243 22 -335 31 -143 83 -295 143 -416 27 -55 49 -104
49 -107 0 -4 -99 -7 -220 -7 l-220 0 0 -200 0 -200 374 0 375 0 1017 -1052
c559 -579 1048 -1084 1085 -1121 76 -75 121 -99 189 -100 104 -1 40 -60 1265
1164 l1140 1138 323 7 c299 7 325 9 348 27 80 63 85 221 8 288 -53 46 -84 54
-229 56 -77 1 -141 2 -143 2 -2 1 17 38 42 84 52 95 107 229 132 319 10 35 22
66 28 70 6 4 77 5 159 1 l147 -6 0 201 0 202 -128 0 -129 0 -6 113 c-32 542
-309 1033 -752 1329 -246 165 -523 262 -820 287 -132 12 -159 12 -286 1z m367
-415 c131 -23 236 -57 359 -119 144 -71 240 -139 350 -250 228 -229 354 -515
379 -858 l6 -78 -988 0 -988 0 -50 -25 c-41 -20 -112 -91 -364 -363 -172 -185
-316 -338 -319 -340 -8 -3 -475 365 -479 377 -1 5 106 123 238 262 304 319
324 356 264 477 -35 70 -88 102 -168 102 -36 0 -70 -7 -95 -19 -22 -12 -144
-131 -300 -296 -179 -187 -267 -273 -275 -267 -449 352 -1136 909 -1136 921 0
15 164 166 232 214 153 110 359 193 551 223 158 26 377 15 530 -24 188 -49
375 -147 557 -291 85 -68 223 -204 267 -263 19 -27 38 -48 42 -48 4 0 13 12
20 28 22 47 118 184 171 245 62 69 280 218 413 281 110 53 232 92 341 110 113
19 334 19 442 1z m-3534 -1025 c134 -110 357 -293 496 -406 138 -114 270 -223
293 -243 l40 -36 -228 -242 -228 -242 -200 0 -200 -1 -31 38 c-92 112 -182
277 -228 417 -85 261 -86 547 -4 804 30 96 36 111 43 111 2 0 113 -90 247
-200z m3488 -683 c33 -2 13 -18 -334 -272 -417 -304 -426 -313 -426 -418 0
-106 64 -180 171 -196 30 -4 258 -5 507 -2 250 3 456 4 458 1 5 -5 -1777
-1790 -1788 -1790 -10 0 -918 939 -918 949 0 9 275 302 564 601 82 85 190 200
239 255 195 216 808 874 817 877 10 3 649 -1 710 -5z m1057 -26 c-17 -82 -137
-290 -236 -408 l-53 -63 -246 1 c-136 1 -296 4 -357 8 l-110 6 93 69 c52 38
200 147 330 242 l237 173 174 1 174 0 -6 -29z m-3139 -409 c127 -101 232 -186
232 -189 0 -4 -28 -36 -63 -72 -34 -36 -205 -218 -381 -404 -313 -333 -319
-338 -339 -320 -11 10 -130 133 -265 273 l-245 255 76 6 c127 11 136 18 450
349 155 164 287 295 292 292 6 -4 115 -89 243 -190z"/>
</g>
</svg>
